<?xml version="1.0" encoding="UTF-8"?>
<svg version="1.1" xmlns="http://www.w3.org/2000/svg" width="512" height="512">
<path d="M0 0 C1.1851268 0.00031723 1.1851268 0.00031723 2.39419556 0.00064087 C15.47685792 0.03548657 27.85191215 1.09840915 40.5625 4.375 C41.30902832 4.55691895 42.05555664 4.73883789 42.82470703 4.92626953 C92.72092053 17.25979348 124.20377651 52.58138064 150.60205078 94.29052734 C153.49367722 98.84006762 156.43041691 103.35961762 159.375 107.875 C160.43101829 109.49607505 161.48700848 111.11716841 162.54296875 112.73828125 C163.299729 113.899646 163.299729 113.899646 164.07177734 115.08447266 C167.35455484 120.12853072 170.61967053 125.18402829 173.88671875 130.23828125 C176.13095748 133.70992765 178.38161419 137.17735771 180.63500977 140.64306641 C181.54170117 142.04259186 182.44456831 143.44460264 183.34350586 144.84912109 C185.80626687 148.69560974 188.32246624 152.49031943 190.921875 156.24609375 C192.03142806 157.89310923 193.14080687 159.5402421 194.25 161.1875 C194.77972412 161.92726074 195.30944824 162.66702148 195.85522461 163.42919922 C199.97424547 169.64093185 200.68201213 175.02809438 199.5625 182.375 C198.33651609 186.77662035 196.64645733 190.88225152 194.8125 195.0625 C194.31951416 196.22587891 193.82652832 197.38925781 193.31860352 198.58789062 C187.28788556 212.64720977 180.84469909 226.58792806 173.51171875 240.01953125 C173.03549072 240.89544922 172.5592627 241.77136719 172.06860352 242.67382812 C171.17231751 244.30510985 170.26084461 245.92817315 169.33178711 247.54101562 C167.97315141 249.9095196 167.97315141 249.9095196 166.5625 253.375 C167.60245606 256.29413472 169.18399375 258.24307896 171.36436462 260.40391541 C172.22022911 261.25956841 172.22022911 261.25956841 173.09338379 262.13250732 C173.71733032 262.74612122 174.34127686 263.35973511 174.98413086 263.99194336 C175.97220482 264.97563652 175.97220482 264.97563652 176.98023987 265.97920227 C178.40981033 267.40116764 179.84168649 268.82081789 181.27558708 270.23841667 C183.54543377 272.48273028 185.80896869 274.73323806 188.07093811 276.98548889 C193.69051521 282.57832488 199.32086151 288.16027988 204.9508667 293.74261475 C209.70757525 298.45985939 214.46017207 303.18117414 219.20736885 307.90799141 C221.43627111 310.1239372 223.67111824 312.33376671 225.90623474 314.54344177 C227.274944 315.9048844 228.64337237 317.2666095 230.01147461 318.62866211 C230.63339691 319.24025177 231.25531921 319.85184143 231.89608765 320.48196411 C237.12190562 325.70649712 239.72295565 330.04453549 241.37182617 337.36157227 C241.52832138 338.04528397 241.68481659 338.72899567 241.84605408 339.4334259 C242.35843636 341.68411066 242.85751962 343.93748768 243.35546875 346.19140625 C243.7094889 347.76986368 244.06393209 349.34822629 244.41877747 350.92649841 C245.16019605 354.23458739 245.89472251 357.54411701 246.62475586 360.85473633 C247.5547623 365.06846424 248.50429042 369.27750837 249.45951366 373.4855814 C250.19689796 376.74640923 250.92229071 380.00982091 251.64440346 383.2740612 C251.98928876 384.82525541 252.33807941 386.37558727 252.69106102 387.92495918 C257.58308071 409.46787541 257.58308071 409.46787541 254.25 417.5625 C250.51372993 421.47255007 246.42521641 424.80000655 242.16162109 428.12011719 C240.54665167 429.38743671 238.95369396 430.67860072 237.36328125 431.9765625 C223.4145195 443.278099 208.42552635 452.98578521 192.5625 461.375 C191.60077881 461.88474365 191.60077881 461.88474365 190.61962891 462.40478516 C175.83371782 470.17100974 160.58121633 476.50342624 144.75 481.8125 C143.72970703 482.15474609 142.70941406 482.49699219 141.65820312 482.84960938 C136.97948542 484.38213132 132.47219933 485.78316867 127.5625 486.375 C127.60890625 487.53257812 127.6553125 488.69015625 127.703125 489.8828125 C127.74066248 491.42184906 127.77706051 492.9609137 127.8125 494.5 C127.84601563 495.26054687 127.87953125 496.02109375 127.9140625 496.8046875 C128.00623473 502.15067673 127.20599283 505.19861536 123.5625 509.375 C118.96607466 513.05549594 114.66731203 512.80026047 109.04212952 512.76268005 C107.59649389 512.77075836 107.59649389 512.77075836 106.1216535 512.77899987 C102.88964788 512.79331661 99.65804968 512.78616644 96.42602539 512.77905273 C94.10992605 512.78475434 91.79382951 512.79171778 89.47773743 512.79985046 C83.18440253 512.81781989 76.89120677 512.81660636 70.5978539 512.81090808 C65.34665972 512.80782176 60.09549247 512.81390246 54.84430212 512.81994683 C41.74931164 512.83480679 28.65439946 512.83116806 15.55940925 512.81908352 C4.18909788 512.80915097 -7.18105078 512.82209188 -18.55133706 512.84601771 C-30.22909169 512.87040521 -41.90676375 512.87961764 -53.58454329 512.87336498 C-60.13964932 512.8699903 -66.69462089 512.87244458 -73.24970818 512.88961601 C-79.41310673 512.90505619 -85.57619403 512.90116184 -91.73958015 512.88231087 C-94.00270655 512.87861693 -96.26585585 512.88175674 -98.52896118 512.89219666 C-101.61638395 512.90535275 -104.70276813 512.89390613 -107.79014587 512.87620544 C-108.68752202 512.88581045 -109.58489818 512.89541546 -110.50946754 512.90531152 C-115.97461404 512.84076262 -119.10007551 512.01510245 -123.4375 508.375 C-126.87402412 504.17811696 -127.14809702 499.7821812 -127.625 494.5625 C-127.70685547 493.77423828 -127.78871094 492.98597656 -127.87304688 492.17382812 C-128.07208616 490.24197624 -128.25629107 488.30860587 -128.4375 486.375 C-129.00855469 486.21531738 -129.57960938 486.05563477 -130.16796875 485.89111328 C-151.50048721 479.85000859 -171.8717724 471.81880244 -191.4375 461.375 C-192.50726074 460.81111572 -192.50726074 460.81111572 -193.59863281 460.23583984 C-209.42141477 451.85806431 -223.86935905 441.99851107 -237.76611328 430.72900391 C-239.46085776 429.35607769 -241.16583294 427.99654869 -242.87109375 426.63671875 C-243.95654379 425.75881876 -245.04121386 424.87995328 -246.125 424 C-247.55392578 422.84371094 -247.55392578 422.84371094 -249.01171875 421.6640625 C-252.2166296 418.63978269 -254.18892911 416.04872734 -254.84609985 411.62373352 C-254.79877165 402.39552464 -253.18186671 393.80114848 -251.1484375 384.85546875 C-250.80345942 383.3015156 -250.4591218 381.74742015 -250.11538696 380.19319153 C-249.39667476 376.95969877 -248.66751162 373.72878528 -247.93115234 370.49926758 C-246.99351756 366.3812246 -246.08701299 362.25702084 -245.18871117 358.13024426 C-244.48722063 354.927827 -243.76710613 351.72981038 -243.04167557 348.53273964 C-242.69981673 347.01403287 -242.36412192 345.49392366 -242.03501511 343.97240257 C-241.57164295 341.84156291 -241.08274859 339.71808513 -240.58740234 337.59448242 C-240.31648773 336.3901506 -240.04557312 335.18581879 -239.76644897 333.94499207 C-236.9622435 326.41197803 -231.23732171 320.88083299 -225.60595703 315.31640625 C-224.95159164 314.66174881 -224.29722626 314.00709137 -223.62303162 313.33259583 C-221.48517074 311.19611473 -219.34034125 309.06678232 -217.1953125 306.9375 C-215.70129362 305.44721606 -214.20771924 303.95648638 -212.71456909 302.46533203 C-208.80308321 298.56144472 -204.88562649 294.66360379 -200.96685791 290.76702881 C-196.96123172 286.78194273 -192.9613339 282.79111596 -188.9609375 278.80078125 C-181.1253596 270.98658656 -173.28345623 263.17877316 -165.4375 255.375 C-167.05734961 250.40945141 -167.05734961 250.40945141 -169.3984375 245.765625 C-169.78136963 245.10731689 -170.16430176 244.44900879 -170.55883789 243.77075195 C-171.17940063 242.70860474 -171.17940063 242.70860474 -171.8125 241.625 C-180.71095275 225.95945059 -187.98777169 209.42220654 -194.625 192.6875 C-194.99955322 191.75010986 -195.37410645 190.81271973 -195.76000977 189.84692383 C-200.64361437 177.21834479 -200.64361437 177.21834479 -198.36083984 170.3984375 C-196.17216254 165.60209759 -193.14341188 161.26645309 -190.25 156.875 C-189.5381958 155.77929688 -188.8263916 154.68359375 -188.09301758 153.5546875 C-186.24473426 150.70958846 -184.3862431 147.87131636 -182.52502441 145.03466797 C-180.82046245 142.43334072 -179.12534047 139.82589023 -177.4296875 137.21875 C-174.92483718 133.36959285 -172.41572015 129.52328261 -169.90234375 125.6796875 C-166.8180234 120.96129575 -163.74790753 116.2339301 -160.6875 111.5 C-160.02621094 110.4776123 -160.02621094 110.4776123 -159.3515625 109.43457031 C-157.16672316 106.05520086 -154.985652 102.67344976 -152.80859375 99.2890625 C-130.20181429 64.17851506 -130.20181429 64.17851506 -122.4375 55.375 C-122.00260254 54.87597168 -121.56770508 54.37694336 -121.11962891 53.86279297 C-114.45158691 46.25215999 -107.54332955 39.48183094 -99.4375 33.375 C-98.40367187 32.57578125 -97.36984375 31.7765625 -96.3046875 30.953125 C-76.93903074 16.30822191 -54.26300089 6.80056966 -30.4375 2.375 C-29.51799561 2.19839844 -28.59849121 2.02179687 -27.65112305 1.83984375 C-18.41315337 0.22660199 -9.34840379 -0.02316601 0 0 Z " fill="#3E6EEF" transform="translate(255.4375,-0.37499999999999994)"/>
<path d="M0 0 C0.90943359 0.10683105 1.81886719 0.21366211 2.75585938 0.32373047 C42.09018399 4.9841592 82.19403808 17.13776287 117 36 C111.56857608 53.15431178 103.7055421 69.29441489 95 85 C94.52127441 85.86689453 94.04254883 86.73378906 93.54931641 87.62695312 C87.18554609 99.09791351 80.54241994 110.26509324 73 121 C72.49855469 121.71784668 71.99710937 122.43569336 71.48046875 123.17529297 C64.4449089 133.20866893 57.11669885 142.81922173 49 152 C48.195625 152.91523438 47.39125 153.83046875 46.5625 154.7734375 C42.19774467 159.68378724 37.69814638 164.40917168 33 169 C32.21625 169.78375 31.4325 170.5675 30.625 171.375 C29.75875 172.24125 28.8925 173.1075 28 174 C27.34257812 174.680625 26.68515625 175.36125 26.0078125 176.0625 C25.26273438 176.825625 24.51765625 177.58875 23.75 178.375 C23.06421875 179.08398438 22.3784375 179.79296875 21.671875 180.5234375 C17.98107346 183.94444361 14.00490524 186.95779149 10 190 C10.8971875 190.01981934 11.794375 190.03963867 12.71875 190.06005859 C16.08114397 190.13864761 19.4431329 190.22535471 22.80517578 190.31738281 C24.25398848 190.35541616 25.70288739 190.39031137 27.15185547 190.421875 C42.86161128 190.76833412 54.85405435 193.32069458 66.66796875 204.46484375 C77.45223118 216.18843892 79.14110935 228.00062508 79.17700195 243.26586914 C79.18357315 244.48620346 79.19014435 245.70653778 79.19691467 246.96385193 C79.21656949 250.98762261 79.22829673 255.01135367 79.23828125 259.03515625 C79.24233278 260.42525183 79.24644981 261.81534723 79.25063133 263.20544243 C79.2696437 269.73226048 79.28388851 276.25906744 79.2922433 282.7859078 C79.3020312 290.30616724 79.32840735 297.82613357 79.36874419 305.34628969 C79.39891361 311.17153197 79.41371254 316.99669015 79.41702431 322.82200903 C79.41937184 326.29643568 79.4282946 329.77054772 79.45348549 333.24489021 C79.4811192 337.11786425 79.47693255 340.9904515 79.4699707 344.86352539 C79.48278076 346.00914948 79.49559082 347.15477356 79.50878906 348.33511353 C79.46933327 354.34861718 79.31926583 358.40482446 75 363 C70.38469818 366.66844636 66.11557904 366.4253324 60.47962952 366.38768005 C59.03399389 366.39575836 59.03399389 366.39575836 57.5591535 366.40399987 C54.32714788 366.41831661 51.09554968 366.41116644 47.86352539 366.40405273 C45.54742605 366.40975434 43.23132951 366.41671778 40.91523743 366.42485046 C34.62190253 366.44281989 28.32870677 366.44160636 22.0353539 366.43590808 C16.78415972 366.43282176 11.53299247 366.43890246 6.28180212 366.44494683 C-6.81318836 366.45980679 -19.90810054 366.45616806 -33.00309075 366.44408352 C-44.37340212 366.43415097 -55.74355078 366.44709188 -67.11383706 366.47101771 C-78.79159169 366.49540521 -90.46926375 366.50461764 -102.14704329 366.49836498 C-108.70214932 366.4949903 -115.25712089 366.49744458 -121.81220818 366.51461601 C-127.97560673 366.53005619 -134.13869403 366.52616184 -140.30208015 366.50731087 C-142.56520655 366.50361693 -144.82835585 366.50675674 -147.09146118 366.51719666 C-150.17888395 366.53035275 -153.26526813 366.51890613 -156.35264587 366.50120544 C-157.25002202 366.51081045 -158.14739818 366.52041546 -159.07196754 366.53031152 C-164.53204587 366.46582248 -167.67658872 365.6529323 -172 362 C-175.54038898 357.23878723 -176.12957333 352.63286551 -176.10920715 346.81665039 C-176.1079483 345.7936232 -176.10668945 344.77059601 -176.10539246 343.71656799 C-176.09873062 342.60482712 -176.09206879 341.49308624 -176.08520508 340.34765625 C-176.08043152 338.57834999 -176.08043152 338.57834999 -176.07556152 336.77330017 C-176.06514015 333.54344927 -176.04987699 330.31367488 -176.03119111 327.0838623 C-176.01951906 325.06038744 -176.00886192 323.03690944 -175.99844933 321.01342773 C-175.96522139 314.66648167 -175.92720507 308.31958746 -175.88308412 301.97270775 C-175.832497 294.67675689 -175.79816219 287.38096888 -175.77790338 280.08487225 C-175.76113698 274.42674985 -175.72915248 268.7688347 -175.68605727 263.11085224 C-175.66074077 259.74070429 -175.64361124 256.37103922 -175.63868141 253.00076294 C-175.63155032 249.22929274 -175.59950687 245.45877194 -175.56176758 241.6875 C-175.5652269 240.59195297 -175.56868622 239.49640594 -175.57225037 238.36766052 C-175.37311228 224.81014382 -171.23385585 213.63723071 -161.8984375 203.78125 C-149.83643846 192.35857953 -136.86757722 190.72065178 -121 190.375 C-119.54294718 190.33675034 -118.08591529 190.29769473 -116.62890625 190.2578125 C-113.08613074 190.16257494 -109.5431957 190.07827103 -106 190 C-106.71575195 189.42137207 -107.43150391 188.84274414 -108.16894531 188.24658203 C-113.49385661 183.91997988 -118.74672968 179.57050071 -123.75 174.875 C-124.2980127 174.36420898 -124.84602539 173.85341797 -125.41064453 173.32714844 C-163.02204068 138.13977159 -196.57922609 87.9901542 -213 39 C-213 38.01 -213 37.02 -213 36 C-177.63308806 17.38036107 -139.59704866 5.38514875 -100 0 C-98.40841064 -0.22429687 -98.40841064 -0.22429687 -96.78466797 -0.453125 C-64.62208924 -4.84301661 -32.14480103 -4.06456629 0 0 Z " fill="#414164" transform="translate(304,146)"/>
<path d="M0 0 C0 47.19 0 94.38 0 143 C-7.59 143.33 -15.18 143.66 -23 144 C-28.95437733 144.55704668 -34.87989185 145.14993806 -40.8125 145.875 C-42.34187757 146.05754159 -43.87125583 146.24007731 -45.40063477 146.42260742 C-49.60294644 146.92954627 -53.80177889 147.46022871 -58 148 C-58.9477832 148.12101074 -59.89556641 148.24202148 -60.87207031 148.36669922 C-95.56260235 152.97459019 -130.1014713 164.71639797 -160.98828125 181.0390625 C-163 182 -163 182 -165 182 C-151.83743856 214.11187893 -136.52184695 244.89128841 -116 273 C-115.4114624 273.81162598 -115.4114624 273.81162598 -114.81103516 274.63964844 C-107.4419871 284.76322137 -99.55490269 294.40781473 -91.12109375 303.66015625 C-89.19213665 305.78804815 -87.30963647 307.94720859 -85.4375 310.125 C-78.60200426 317.93029147 -71.09921717 324.52802281 -63 331 C-60.97071876 332.63978388 -58.97367943 334.293034 -57 336 C-57 336.33 -57 336.66 -57 337 C-58.36765503 337.02187378 -58.36765503 337.02187378 -59.76293945 337.04418945 C-63.19822929 337.10583342 -66.63279453 337.1800874 -70.06762695 337.26245117 C-71.5444133 337.29537572 -73.02131569 337.32350473 -74.49829102 337.34643555 C-89.51220433 337.58572138 -101.83666037 339.58596242 -113.29296875 350.10546875 C-123.17768636 360.58364033 -126.28872845 372.02693249 -126.31884766 386.09765625 C-126.32889328 387.18147079 -126.3389389 388.26528534 -126.34928894 389.38194275 C-126.38002619 392.94212341 -126.39712993 396.5022292 -126.4140625 400.0625 C-126.43278173 402.53972005 -126.45235571 405.01693378 -126.4727478 407.49414062 C-126.52399505 413.99762232 -126.56366052 420.50112468 -126.60089111 427.00469971 C-126.64097715 433.64771761 -126.6920485 440.29064476 -126.7421875 446.93359375 C-126.83885913 459.95566806 -126.92366534 472.97779141 -127 486 C-129.54017571 485.37897246 -132.07937905 484.7543524 -134.61816406 484.12768555 C-135.33009918 483.95402214 -136.0420343 483.78035873 -136.77554321 483.6014328 C-142.93122232 482.07708007 -148.83519577 480.10168965 -154.75 477.8125 C-155.76658691 477.42376709 -156.78317383 477.03503418 -157.83056641 476.63452148 C-187.07688356 465.30505203 -214.14107793 450.29559022 -238.40917969 430.30566406 C-240.06555993 428.94619176 -241.7384721 427.60913606 -243.4140625 426.2734375 C-244.50592809 425.39151536 -245.59710327 424.50873758 -246.6875 423.625 C-248.11642578 422.46871094 -248.11642578 422.46871094 -249.57421875 421.2890625 C-252.7791296 418.26478269 -254.75142911 415.67372734 -255.40859985 411.24873352 C-255.36127165 402.02052464 -253.74436671 393.42614848 -251.7109375 384.48046875 C-251.36595942 382.9265156 -251.0216218 381.37242015 -250.67788696 379.81819153 C-249.95917476 376.58469877 -249.23001162 373.35378528 -248.49365234 370.12426758 C-247.55601756 366.0062246 -246.64951299 361.88202084 -245.75121117 357.75524426 C-245.04972063 354.552827 -244.32960613 351.35481038 -243.60417557 348.15773964 C-243.26231673 346.63903287 -242.92662192 345.11892366 -242.59751511 343.59740257 C-242.13414295 341.46656291 -241.64524859 339.34308513 -241.14990234 337.21948242 C-240.87898773 336.0151506 -240.60807312 334.81081879 -240.32894897 333.56999207 C-237.5247435 326.03697803 -231.79982171 320.50583299 -226.16845703 314.94140625 C-225.51409164 314.28674881 -224.85972626 313.63209137 -224.18553162 312.95759583 C-222.04767074 310.82111473 -219.90284125 308.69178232 -217.7578125 306.5625 C-216.26379362 305.07221606 -214.77021924 303.58148638 -213.27706909 302.09033203 C-209.36558321 298.18644472 -205.44812649 294.28860379 -201.52935791 290.39202881 C-197.52373172 286.40694273 -193.5238339 282.41611596 -189.5234375 278.42578125 C-181.6878596 270.61158656 -173.84595623 262.80377316 -166 255 C-167.61984961 250.03445141 -167.61984961 250.03445141 -169.9609375 245.390625 C-170.34386963 244.73231689 -170.72680176 244.07400879 -171.12133789 243.39575195 C-171.74190063 242.33360474 -171.74190063 242.33360474 -172.375 241.25 C-181.27345275 225.58445059 -188.55027169 209.04720654 -195.1875 192.3125 C-195.56205322 191.37510986 -195.93660645 190.43771973 -196.32250977 189.47192383 C-201.20611437 176.84334479 -201.20611437 176.84334479 -198.92333984 170.0234375 C-196.73466254 165.22709759 -193.70591188 160.89145309 -190.8125 156.5 C-190.1006958 155.40429688 -189.3888916 154.30859375 -188.65551758 153.1796875 C-186.80723426 150.33458846 -184.9487431 147.49631636 -183.08752441 144.65966797 C-181.38296245 142.05834072 -179.68784047 139.45089023 -177.9921875 136.84375 C-175.48733718 132.99459285 -172.97822015 129.14828261 -170.46484375 125.3046875 C-167.3805234 120.58629575 -164.31040753 115.8589301 -161.25 111.125 C-160.58871094 110.1026123 -160.58871094 110.1026123 -159.9140625 109.05957031 C-157.72922316 105.68020086 -155.548152 102.29844976 -153.37109375 98.9140625 C-130.76431429 63.80351506 -130.76431429 63.80351506 -123 55 C-122.56510254 54.50097168 -122.13020508 54.00194336 -121.68212891 53.48779297 C-115.01408691 45.87715999 -108.10582955 39.10683094 -100 33 C-98.96617187 32.20078125 -97.93234375 31.4015625 -96.8671875 30.578125 C-77.36118016 15.8270845 -54.87724737 6.7468254 -31 2 C-29.90558594 1.77441406 -28.81117188 1.54882812 -27.68359375 1.31640625 C-18.19476858 -0.40559581 -10.01014885 0 0 0 Z " fill="#4C87F9" transform="translate(256,0)"/>
<path d="M0 0 C0 0.33 0 0.66 0 1 C-5.61 1 -11.22 1 -17 1 C-16.9948733 6.53427752 -16.97141644 12.06244872 -16.90234375 17.59545898 C-16.8842703 19.47396769 -16.87659942 21.35260839 -16.87988281 23.23120117 C-17.32157523 36.735592 -17.32157523 36.735592 -11.57763672 48.47827148 C-11.0570166 48.98044189 -10.53639648 49.4826123 -10 50 C-9.24976563 50.74894531 -8.49953125 51.49789062 -7.7265625 52.26953125 C1.08690975 58.74038913 9.45125406 63.18555945 20.66967773 63.31884766 C22.59087685 63.34865219 22.59087685 63.34865219 24.55088806 63.37905884 C25.92845487 63.39093158 27.30602351 63.40259465 28.68359375 63.4140625 C30.10849604 63.43279555 31.53338749 63.45237052 32.95826721 63.4727478 C36.68831967 63.52384969 40.418408 63.56359199 44.14862061 63.60089111 C47.96310135 63.64106924 51.77743568 63.69209823 55.59179688 63.7421875 C63.06109709 63.83868654 70.53046877 63.92317354 78 64 C78.01207363 65.91892976 78.02068339 67.83788151 78.02783203 69.75683594 C78.03299835 70.82544861 78.03816467 71.89406128 78.04348755 72.99505615 C77.713787 95.77701669 65.3992879 117.98554678 49.4921875 133.57470703 C30.9625796 151.27363552 8.4767138 160 -17 160 C-17 171.22 -17 182.44 -17 194 C-24.20524784 194.23197383 -31.39669556 194.45200919 -38.60243988 194.56925201 C-41.95931498 194.62693858 -45.31069259 194.70979375 -48.66625977 194.82983398 C-74.48364191 195.72971291 -74.48364191 195.72971291 -81.93359375 188.81640625 C-83.74421423 186.94629018 -85.35327924 185.02543636 -87 183 C-88.19283356 181.89613755 -89.40449939 180.81156103 -90.6484375 179.765625 C-129.92511733 143.52754218 -164.92336433 92.94686884 -182 42 C-182 41.01 -182 40.02 -182 39 C-146.63308806 20.38036107 -108.59704866 8.38514875 -69 3 C-67.40841064 2.77570313 -67.40841064 2.77570313 -65.78466797 2.546875 C-43.86246175 -0.4453014 -22.07364383 -0.32720339 0 0 Z " fill="#414164" transform="translate(273,143)"/>
<path d="M0 0 C1.30385399 -0.00043808 1.30385399 -0.00043808 2.63404846 -0.00088501 C5.48009557 0.00049779 8.32587416 0.01600916 11.171875 0.03173828 C13.15584164 0.03547215 15.13981014 0.03831735 17.1237793 0.04031372 C22.32530886 0.04792075 27.52672532 0.06754391 32.72821045 0.08972168 C38.9799923 0.1138566 45.23181214 0.12297505 51.48362732 0.1346283 C60.96312168 0.15397012 70.44236826 0.19231318 79.921875 0.22705078 C79.921875 23.98705078 79.921875 47.74705078 79.921875 72.22705078 C86.521875 72.22705078 93.121875 72.22705078 99.921875 72.22705078 C105.53326348 75.03274502 108.18541452 76.75412983 110.921875 82.22705078 C111.51293987 87.91036687 111.19430916 92.37482081 107.921875 97.22705078 C99.20298701 105.29202218 94.04487276 102.22705078 79.921875 102.22705078 C79.921875 126.31705078 79.921875 150.40705078 79.921875 175.22705078 C50.67379915 175.38770545 50.67379915 175.38770545 36.22839928 175.42806625 C28.41535091 175.45023329 20.60247333 175.47837717 12.78955078 175.52880859 C5.94255512 175.57298396 -0.90425554 175.59618463 -7.75138474 175.60655975 C-10.36449468 175.61395414 -12.97759444 175.62839346 -15.59062576 175.64997101 C-19.2489539 175.67898055 -22.90651687 175.68300763 -26.56494141 175.68115234 C-27.6467569 175.69553345 -28.72857239 175.70991455 -29.84317017 175.72473145 C-35.90859434 175.69141701 -39.47743977 175.30928864 -44.078125 171.22705078 C-47.61851398 166.46583801 -48.20769833 161.85991629 -48.18733215 156.04370117 C-48.1860733 155.02067398 -48.18481445 153.99764679 -48.18351746 152.94361877 C-48.17685562 151.8318779 -48.17019379 150.72013702 -48.16333008 149.57470703 C-48.16014771 148.39516953 -48.15696533 147.21563202 -48.15368652 146.00035095 C-48.14326515 142.77050005 -48.12800199 139.54072566 -48.10931611 136.31091309 C-48.09764406 134.28743823 -48.08698692 132.26396022 -48.07657433 130.24047852 C-48.04334639 123.89353245 -48.00533007 117.54663824 -47.96120912 111.19975853 C-47.910622 103.90380767 -47.87628719 96.60801966 -47.85602838 89.31192303 C-47.83926198 83.65380064 -47.80727748 77.99588549 -47.76418227 72.33790302 C-47.73886577 68.96775507 -47.72173624 65.59809 -47.71680641 62.22781372 C-47.70967532 58.45634352 -47.67763187 54.68582272 -47.63989258 50.91455078 C-47.6433519 49.81900375 -47.64681122 48.72345673 -47.65037537 47.5947113 C-47.45123728 34.0371946 -43.31198085 22.86428149 -33.9765625 13.00830078 C-24.23476909 3.78285685 -13.26269663 -0.11869524 0 0 Z " fill="#555578" transform="translate(176.078125,336.77294921875)"/>
<path d="M0 0 C2.31666802 2.25140415 3.98492154 4.40339026 5.64453125 7.18359375 C6.14960205 8.01914795 6.65467285 8.85470215 7.17504883 9.71557617 C7.98558716 11.06292847 7.98558716 11.06292847 8.8125 12.4375 C17.6429494 26.90387232 27.12440808 40.98154781 38 54 C38.6909375 54.86238281 39.381875 55.72476563 40.09375 56.61328125 C48.1397105 66.6282356 56.79778368 76.03509011 66 85 C63.91143897 88.13284155 63.05264959 88.66617473 59.8125 90.25 C50.99855027 95.01009785 44.44325007 102.74218722 41.22619915 112.29861927 C39.22415074 119.12831422 38.55742759 125.34259193 38.56762695 132.43823242 C38.5574353 133.52248505 38.54724365 134.60673767 38.53674316 135.72384644 C38.50681879 139.26777451 38.49737864 142.81143139 38.48828125 146.35546875 C38.47141935 148.82840356 38.45326709 151.30132988 38.43388367 153.77424622 C38.38654195 160.25303493 38.35663021 166.7317892 38.33044434 173.21069336 C38.30055883 179.83389078 38.25405601 186.45696972 38.20898438 193.08007812 C38.12313137 206.05332079 38.055141 219.02659228 38 232 C35.45982429 231.37897246 32.92062095 230.7543524 30.38183594 230.12768555 C29.31393326 229.86719044 29.31393326 229.86719044 28.22445679 229.6014328 C22.06877768 228.07708007 16.16480423 226.10168965 10.25 223.8125 C9.23341309 223.42376709 8.21682617 223.03503418 7.16943359 222.63452148 C-22.07688356 211.30505203 -49.14107793 196.29559022 -73.40917969 176.30566406 C-75.06555993 174.94619176 -76.7384721 173.60913606 -78.4140625 172.2734375 C-79.50592809 171.39151536 -80.59710327 170.50873758 -81.6875 169.625 C-82.64011719 168.85414063 -83.59273438 168.08328125 -84.57421875 167.2890625 C-87.7791296 164.26478269 -89.75142911 161.67372734 -90.40859985 157.24873352 C-90.36127165 148.02052464 -88.74436671 139.42614848 -86.7109375 130.48046875 C-86.36595942 128.9265156 -86.0216218 127.37242015 -85.67788696 125.81819153 C-84.95917476 122.58469877 -84.23001162 119.35378528 -83.49365234 116.12426758 C-82.55601756 112.0062246 -81.64951299 107.88202084 -80.75121117 103.75524426 C-80.04972063 100.552827 -79.32960613 97.35481038 -78.60417557 94.15773964 C-78.26231673 92.63903287 -77.92662192 91.11892366 -77.59751511 89.59740257 C-77.13414295 87.46656291 -76.64524859 85.34308513 -76.14990234 83.21948242 C-75.87898773 82.0151506 -75.60807312 80.81081879 -75.32894897 79.56999207 C-72.50948227 71.99598135 -66.73726167 66.44394966 -61.07666016 60.84960938 C-60.4125412 60.18519836 -59.74842224 59.52078735 -59.06417847 58.83624268 C-56.89385236 56.66729667 -54.71655562 54.50549855 -52.5390625 52.34375 C-51.02262342 50.83104575 -49.50662877 49.31789585 -47.99105835 47.80432129 C-44.02038854 43.84125093 -40.04374735 39.88422633 -36.0657959 35.9284668 C-31.99984752 31.88305659 -27.93962587 27.83190752 -23.87890625 23.78125 C-15.92483823 15.84856677 -7.96444456 7.92226415 0 0 Z " fill="#60AAE7" transform="translate(91,254)"/>
<path d="M0 0 C4.78360708 3.99456121 9.30981211 8.16109491 13.71386719 12.56860352 C14.34405258 13.1954303 14.97423798 13.82225708 15.6235199 14.46807861 C17.6839313 16.51907178 19.74062789 18.57373871 21.796875 20.62890625 C23.23692702 22.0657414 24.67705272 23.50250271 26.11724854 24.93919373 C29.12470219 27.94068049 32.1301029 30.94420588 35.13427734 33.94897461 C38.98150684 37.79630606 42.83559053 41.63669176 46.69144821 45.47537327 C49.66312591 48.43593336 52.63024845 51.40102637 55.59610748 54.36741447 C57.01545112 55.78557941 58.43641353 57.20212618 59.85903168 58.6170063 C61.84537674 60.59354829 63.82527917 62.57633246 65.80371094 64.56079102 C66.3897258 65.14118637 66.97574066 65.72158173 67.57951355 66.31956482 C72.67892524 71.45851861 75.19499338 75.82280028 76.80932617 82.98657227 C77.04406898 84.01213982 77.04406898 84.01213982 77.28355408 85.0584259 C77.79593636 87.30911066 78.29501962 89.56248768 78.79296875 91.81640625 C79.1469889 93.39486368 79.50143209 94.97322629 79.85627747 96.55149841 C80.59769605 99.85958739 81.33222251 103.16911701 82.06225586 106.47973633 C82.9922623 110.69346424 83.94179042 114.90250837 84.89701366 119.1105814 C85.63439796 122.37140923 86.35979071 125.63482091 87.08190346 128.8990612 C87.42678876 130.45025541 87.77557941 132.00058727 88.12856102 133.54995918 C93.02058071 155.09287541 93.02058071 155.09287541 89.6875 163.1875 C85.95122993 167.09755007 81.86271641 170.42500655 77.59912109 173.74511719 C75.98415167 175.01243671 74.39119396 176.30360072 72.80078125 177.6015625 C58.8520195 188.903099 43.86302635 198.61078521 28 207 C27.35885254 207.3398291 26.71770508 207.6796582 26.05712891 208.02978516 C11.27121782 215.79600974 -3.98128367 222.12842624 -19.8125 227.4375 C-20.83279297 227.77974609 -21.85308594 228.12199219 -22.90429688 228.47460938 C-27.6156389 230.01781747 -32.09818634 231.21438284 -37 232 C-37.00331015 231.44746111 -37.00662029 230.89492222 -37.01003075 230.32563972 C-37.09145967 216.84454376 -37.1837382 203.36355903 -37.28752708 189.88261604 C-37.33739554 183.36317177 -37.3837264 176.84374297 -37.421875 170.32421875 C-37.45884716 164.0282675 -37.50523942 157.73244867 -37.55806351 151.43661118 C-37.57654413 149.03898322 -37.59167525 146.64132694 -37.60334396 144.24365616 C-37.62031494 140.876005 -37.64937604 137.50865293 -37.68115234 134.14111328 C-37.68331253 133.15783554 -37.68547272 132.1745578 -37.68769836 131.16148376 C-37.85975942 116.81382647 -41.53097591 105.91876855 -51.44140625 95.33984375 C-55.55985249 91.57350894 -60.15351592 88.73577232 -65 86 C-61.57723878 81.85665747 -58.03341252 78.00591456 -54.1875 74.25 C-49.5399443 69.63697294 -45.35802432 64.81320608 -41.31494141 59.66552734 C-39.85288421 57.81366061 -38.36955086 55.97979941 -36.88671875 54.14453125 C-23.21529524 37.06313619 -11.40790919 18.64754387 0 0 Z " fill="#4D88F9" transform="translate(420,254)"/>
<path d="M0 0 C57.75530136 -1.55755402 113.43096173 12.15606953 165 38 C159.56857608 55.15431178 151.7055421 71.29441489 143 87 C142.52127441 87.86689453 142.04254883 88.73378906 141.54931641 89.62695312 C135.18554609 101.09791351 128.54241994 112.26509324 121 123 C120.49855469 123.71784668 119.99710937 124.43569336 119.48046875 125.17529297 C112.4449089 135.20866893 105.11669885 144.81922173 97 154 C96.195625 154.91523438 95.39125 155.83046875 94.5625 156.7734375 C90.19774467 161.68378724 85.69814638 166.40917168 81 171 C80.21625 171.78375 79.4325 172.5675 78.625 173.375 C77.75875 174.24125 76.8925 175.1075 76 176 C75.36578125 176.66902344 74.7315625 177.33804688 74.078125 178.02734375 C59.37980197 193.27294476 59.37980197 193.27294476 49.6105957 193.90820312 C47.29860391 193.90695616 44.98633046 193.86291984 42.67578125 193.78125 C40.83466011 193.76427063 40.83466011 193.76427063 38.9563446 193.74694824 C35.07340945 193.70251225 31.19430045 193.60219704 27.3125 193.5 C24.66476723 193.4598313 22.01697602 193.42333654 19.36914062 193.390625 C12.91013594 193.30971044 6.45929925 193.15313452 0 193 C0 181.78 0 170.56 0 159 C2.619375 158.773125 5.23875 158.54625 7.9375 158.3125 C32.35959021 155.75854135 55.92500837 144.99169115 72 126 C84.48394878 109.85583588 92.25298595 92.29609318 94.13671875 71.94921875 C94.22223999 71.08276733 94.30776123 70.21631592 94.39587402 69.3236084 C94.60304297 67.21630046 94.80235829 65.10822282 95 63 C94.22485046 63.00888245 93.44970093 63.01776489 92.65106201 63.0269165 C85.29676299 63.10752299 77.94268231 63.16819584 70.58805466 63.20724869 C66.80818373 63.22800211 63.02868198 63.25609088 59.24902344 63.30175781 C55.59203791 63.34565913 51.93540435 63.36922881 48.27817535 63.37950897 C46.89249389 63.38682192 45.50682868 63.40109905 44.12129974 63.42292023 C29.70026511 63.64072447 18.98083586 60.49070628 8 51 C4.33678333 47.36614779 0.40070787 43.33145301 -0.24050903 38.00042725 C-0.23606781 37.29871399 -0.23162659 36.59700073 -0.22705078 35.87402344 C-0.22689972 35.07349548 -0.22674866 34.27296753 -0.22659302 33.44818115 C-0.21110916 32.16672211 -0.21110916 32.16672211 -0.1953125 30.859375 C-0.1924826 29.97719299 -0.18965271 29.09501099 -0.18673706 28.18609619 C-0.17555961 25.37392501 -0.15045951 22.5620746 -0.125 19.75 C-0.11496705 17.84115044 -0.10584175 15.93229588 -0.09765625 14.0234375 C-0.07562824 9.34883511 -0.04111511 4.67447191 0 0 Z " fill="#28283C" transform="translate(256,144)"/>
<path d="M0 0 C3.43065892 1.14355297 3.7610872 1.78960109 5.6875 4.6875 C12.1188524 13.5643543 21.56640175 18.33468221 32 21 C35.28865826 21.32001165 35.28865826 21.32001165 38.66967773 21.31884766 C40.59087685 21.34865219 40.59087685 21.34865219 42.55088806 21.37905884 C43.92845487 21.39093158 45.30602351 21.40259465 46.68359375 21.4140625 C48.10849604 21.43279555 49.53338749 21.45237052 50.95826721 21.4727478 C54.68831967 21.52384969 58.418408 21.56359199 62.14862061 21.60089111 C65.96310135 21.64106924 69.77743568 21.69209823 73.59179688 21.7421875 C81.06109709 21.83868654 88.53046877 21.92317354 96 22 C96.01207363 23.91892976 96.02068339 25.83788151 96.02783203 27.75683594 C96.03299835 28.82544861 96.03816467 29.89406128 96.04348755 30.99505615 C95.713787 53.77701669 83.3992879 75.98554678 67.4921875 91.57470703 C49.64947071 108.61753763 26.57086579 118.45671132 1.8125 118.3125 C0.80654785 118.30758545 -0.1994043 118.3026709 -1.23583984 118.29760742 C-22.893118 117.95948338 -43.50480372 110.1260478 -60 96 C-61.21623047 95.00033203 -61.21623047 95.00033203 -62.45703125 93.98046875 C-80.06685099 78.96748879 -90.19113617 57.5981301 -94 35 C-94.06652855 32.73004581 -94.08543751 30.45831305 -94.0625 28.1875 C-94.05347656 27.02605469 -94.04445312 25.86460937 -94.03515625 24.66796875 C-94.02355469 23.78753906 -94.01195312 22.90710938 -94 22 C-92.89365204 21.99120064 -92.89365204 21.99120064 -91.76495361 21.98222351 C-84.76359756 21.92396302 -77.76255203 21.85170035 -70.76150894 21.76428509 C-67.16345778 21.7198381 -63.56551318 21.68052826 -59.96728516 21.65356445 C-56.48517426 21.62727163 -53.00347932 21.58669388 -49.52162933 21.53681374 C-47.56784061 21.51237196 -45.6138901 21.50216808 -43.65997314 21.49235535 C-28.54241358 21.24714942 -16.0910363 17.57517414 -5 7 C-3.20776058 4.72761156 -1.6079376 2.4119064 0 0 Z " fill="#EDBDA9" transform="translate(255,185)"/>
<path d="M0 0 C0.33 0 0.66 0 1 0 C1 38.94 1 77.88 1 118 C-21.7079512 118 -42.61910563 110.88453611 -60 96 C-61.21623047 95.00033203 -61.21623047 95.00033203 -62.45703125 93.98046875 C-80.06685099 78.96748879 -90.19113617 57.5981301 -94 35 C-94.06652855 32.73004581 -94.08543751 30.45831305 -94.0625 28.1875 C-94.05347656 27.02605469 -94.04445312 25.86460937 -94.03515625 24.66796875 C-94.02355469 23.78753906 -94.01195312 22.90710938 -94 22 C-92.89365204 21.99120064 -92.89365204 21.99120064 -91.76495361 21.98222351 C-84.76359756 21.92396302 -77.76255203 21.85170035 -70.76150894 21.76428509 C-67.16345778 21.7198381 -63.56551318 21.68052826 -59.96728516 21.65356445 C-56.48517426 21.62727163 -53.00347932 21.58669388 -49.52162933 21.53681374 C-47.56784061 21.51237196 -45.6138901 21.50216808 -43.65997314 21.49235535 C-28.54241358 21.24714942 -16.0910363 17.57517414 -5 7 C-3.24408949 4.71922493 -1.62976237 2.37479659 0 0 Z " fill="#F0CCBD" transform="translate(255,185)"/>
<path d="M0 0 C0 0.33 0 0.66 0 1 C-5.61 1 -11.22 1 -17 1 C-16.94352295 2.21582764 -16.8870459 3.43165527 -16.82885742 4.68432617 C-16.6258201 9.20286083 -16.45686852 13.72214297 -16.2980957 18.24243164 C-16.22468749 20.19722903 -16.14208489 22.15170395 -16.05004883 24.10571289 C-15.91920489 26.91778499 -15.82167552 29.72936625 -15.73046875 32.54296875 C-15.68278854 33.41398727 -15.63510834 34.2850058 -15.58598328 35.18241882 C-15.47541716 39.62965493 -15.47183255 41.35500288 -18.3840332 44.91137695 C-19.67893677 45.94524536 -19.67893677 45.94524536 -21 47 C-21.70125 47.94875 -22.4025 48.8975 -23.125 49.875 C-29.93694263 58.16500565 -40.7114811 62.2349402 -51 64 C-53.28708569 64.10982611 -55.57686365 64.16850227 -57.86645508 64.19287109 C-58.87239967 64.20513733 -58.87239967 64.20513733 -59.89866638 64.21765137 C-62.10561258 64.24234928 -64.31249521 64.25897988 -66.51953125 64.2734375 C-67.27724005 64.27876118 -68.03494884 64.28408485 -68.81561852 64.28956985 C-72.82539225 64.31623208 -76.83513559 64.33563 -80.8449707 64.35009766 C-84.15156723 64.36343628 -87.45754655 64.39129642 -90.76391602 64.43212891 C-94.77034447 64.48159223 -98.77621348 64.50623445 -102.78293419 64.51332474 C-104.3031088 64.52001135 -105.82327219 64.53516565 -107.34327126 64.55921555 C-122.0360531 64.77845524 -122.0360531 64.77845524 -127.58029175 60.4619751 C-131.47156332 56.45485453 -132.34172064 52.63354745 -132.33988953 47.13638306 C-132.32440567 46.42364227 -132.30892181 45.71090149 -132.29296875 44.9765625 C-132.28872391 44.23038666 -132.28447906 43.48421082 -132.28010559 42.71542358 C-132.26342382 40.35156902 -132.22579339 37.98859324 -132.1875 35.625 C-132.17243949 34.0143353 -132.15875348 32.40365713 -132.14648438 30.79296875 C-132.11355504 26.86164485 -132.06184762 22.93097099 -132 19 C-132.66 18.67 -133.32 18.34 -134 18 C-113.68854739 11.62143963 -92.75129149 5.96120246 -71.59521484 3.32373047 C-69.73731105 3.09197314 -67.88099637 2.84733344 -66.02587891 2.59423828 C-44.00278481 -0.36996015 -22.17725524 -0.32873925 0 0 Z " fill="#555578" transform="translate(273,143)"/>
<path d="M0 0 C39.83016972 -1.07414626 77.83781415 5.61482094 116 17 C115.9309001 21.87516992 115.84282699 26.74950032 115.73754883 31.62402344 C115.70439982 33.28050384 115.67633691 34.93709446 115.65356445 36.59375 C115.61983268 38.98224634 115.56751041 41.36974171 115.51171875 43.7578125 C115.50532883 44.49242706 115.4989389 45.22704163 115.49235535 45.98391724 C115.3588906 50.70560175 114.48222256 53.981732 112 58 C107.13002637 62.50472561 103.66145136 63.12587433 97.14868164 63.17700195 C96.45550842 63.18357315 95.76233521 63.19014435 95.04815674 63.19691467 C92.75215537 63.21663304 90.45621968 63.22831269 88.16015625 63.23828125 C86.97868421 63.24439454 86.97868421 63.24439454 85.77334404 63.25063133 C81.5968642 63.27149508 77.42041716 63.28579025 73.24389648 63.29516602 C68.95709178 63.30617543 64.67081407 63.34051014 60.38419437 63.38033772 C57.06645335 63.40666789 53.74883413 63.41487271 50.43099785 63.41844749 C48.85275183 63.42327856 47.27450996 63.43479152 45.69636726 63.45348549 C30.8313506 63.61849302 19.4896833 60.93050172 8 51 C4.33678333 47.36614779 0.40070787 43.33145301 -0.24050903 38.00042725 C-0.23606781 37.29871399 -0.23162659 36.59700073 -0.22705078 35.87402344 C-0.22689972 35.07349548 -0.22674866 34.27296753 -0.22659302 33.44818115 C-0.21110916 32.16672211 -0.21110916 32.16672211 -0.1953125 30.859375 C-0.1924826 29.97719299 -0.18965271 29.09501099 -0.18673706 28.18609619 C-0.17555961 25.37392501 -0.15045951 22.5620746 -0.125 19.75 C-0.11496705 17.84115044 -0.10584175 15.93229588 -0.09765625 14.0234375 C-0.07562824 9.34883511 -0.04111511 4.67447191 0 0 Z " fill="#414164" transform="translate(256,144)"/>
<path d="M0 0 C-0.76285083 11.06133699 -2.79111703 23.47772138 -11.41967773 31.15209961 C-16.03341865 34.10038491 -21.23567154 33.49334872 -26.5234375 33.390625 C-27.62475006 33.38496521 -28.72606262 33.37930542 -29.86074829 33.37347412 C-33.36594763 33.35114742 -36.87011146 33.30095572 -40.375 33.25 C-42.75649562 33.22993031 -45.13800731 33.21168036 -47.51953125 33.1953125 C-53.3470706 33.15470247 -59.17238113 33.07639996 -65 33 C-65 25.08 -65 17.16 -65 9 C-54.86169192 5.62056397 -54.86169192 5.62056397 -50.5390625 4.90234375 C-49.58233643 4.7415332 -48.62561035 4.58072266 -47.63989258 4.41503906 C-46.14752075 4.17865723 -46.14752075 4.17865723 -44.625 3.9375 C-43.57787842 3.76831055 -42.53075684 3.59912109 -41.4519043 3.42480469 C-27.65519344 1.2488591 -13.98820644 -0.45204258 0 0 Z " fill="#414165" transform="translate(236,144)"/>
<path d="M0 0 C8.77810989 -0.28709717 17.24415784 0.58534941 25.9375 1.75 C26.61276733 1.83859283 27.28803467 1.92718567 27.98376465 2.01846313 C54.53514453 5.51171484 54.53514453 5.51171484 65 9 C65 16.92 65 24.84 65 33 C58.452562 33.06905501 51.90639937 33.12873504 45.35888672 33.16479492 C43.13390815 33.17983512 40.90895899 33.20027246 38.68408203 33.22631836 C35.47681394 33.26291135 32.26993955 33.2797745 29.0625 33.29296875 C28.07572266 33.30845261 27.08894531 33.32393646 26.07226562 33.33988953 C19.13422443 33.34156133 13.01033434 32.7531701 7.66796875 27.8671875 C5.46951229 24.08810777 4.38925281 20.34199333 3.3125 16.125 C3.10044922 15.34769531 2.88839844 14.57039062 2.66992188 13.76953125 C1.45108132 9.19407303 0.57026302 4.69996992 0 0 Z " fill="#28283C" transform="translate(276,144)"/>
<path d="M0 0 C0.86370712 -0.00145523 1.72741425 -0.00291046 2.61729431 -0.00440979 C4.43345533 -0.00275796 6.24963139 0.00872261 8.06567383 0.02954102 C10.83540616 0.05854728 13.60322714 0.05012475 16.37304688 0.03710938 C18.14454049 0.04334636 19.9160281 0.05173699 21.6875 0.0625 C22.50952408 0.05956436 23.33154816 0.05662872 24.17848206 0.05360413 C29.10550029 0.13395449 32.50395271 0.78741255 36.77734375 3.49609375 C41.01195843 8.18850461 42.08147435 10.99905365 41.9921875 17.1796875 C41.55654002 21.87675945 39.67427585 24.66643156 36.27734375 27.80859375 C31.6872194 30.90692769 27.32745642 30.68721385 21.98046875 30.734375 C21.11347351 30.74244675 20.24647827 30.75051849 19.35321045 30.75883484 C17.51739494 30.77266316 15.68155385 30.78339092 13.84570312 30.79125977 C11.05158112 30.80844468 8.25865131 30.85233787 5.46484375 30.89648438 C3.67839409 30.90661439 1.8919344 30.91512953 0.10546875 30.921875 C-0.72394226 30.93938309 -1.55335327 30.95689117 -2.40789795 30.97492981 C-8.16511516 30.95362607 -11.47717148 29.78914579 -16.22265625 26.49609375 C-19.06161339 23.04523106 -20.10803149 19.31279514 -20.72265625 14.93359375 C-20.1207923 10.79577908 -19.09748093 7.58707066 -16.22265625 4.49609375 C-10.65957659 0.6773772 -6.67129324 -0.09139656 0 0 Z " fill="#B2BEE6" transform="translate(245.22265625,408.50390625)"/>
<path d="M0 0 C4.33043165 1.8237481 7.27257038 3.9770521 10 7.8125 C11.71176771 13.26875956 12.02338633 17.71383497 9.375 22.8125 C5.42860667 28.49442204 -0.49966051 32.34349538 -5.97070312 36.44677734 C-10.2685015 39.73630974 -14.41415454 43.2200611 -18.58129883 46.67260742 C-19.21575928 47.19314697 -19.85021973 47.71368652 -20.50390625 48.25 C-21.05892822 48.70890625 -21.6139502 49.1678125 -22.18579102 49.640625 C-24.34368276 51.25751926 -26.68781301 52.6126878 -29 54 C-29.495 33.21 -29.495 33.21 -30 12 C-29.67 12.99 -29.34 13.98 -29 15 C-28.07058594 14.25234375 -27.14117187 13.5046875 -26.18359375 12.734375 C-24.93509622 11.73933185 -23.68638695 10.74455435 -22.4375 9.75 C-21.82841797 9.25886719 -21.21933594 8.76773437 -20.59179688 8.26171875 C-7.98293104 -1.74531762 -7.98293104 -1.74531762 0 0 Z " fill="#3E6EEF" transform="translate(412,361)"/>
<path d="M0 0 C1.8671875 1.09765625 1.8671875 1.09765625 3.7512207 2.48266602 C6.30429386 4.33167717 6.30429386 4.33167717 9.48461914 6.0078125 C13.88238835 8.60791396 18.29055143 11.28087565 19.93151855 16.35357666 C20.86906021 22.33794158 20.42847719 28.33013054 20.0546875 34.34765625 C19.98938072 36.18078365 19.93008207 38.01413549 19.87695312 39.84765625 C19.73461978 44.3115907 19.51099284 48.76462314 19.2421875 53.22265625 C12.46679833 48.17296077 5.80917205 42.99246559 -0.81542969 37.74755859 C-2.82850018 36.16716162 -4.85804124 34.60988591 -6.890625 33.0546875 C-8.24233384 32.00669913 -9.59390001 30.95852673 -10.9453125 29.91015625 C-11.58090088 29.4311084 -12.21648926 28.95206055 -12.87133789 28.45849609 C-16.70778771 25.45723066 -18.9780786 22.89287995 -20.7578125 18.22265625 C-21.34157369 12.9688055 -21.05693392 9.25080488 -18.15234375 4.765625 C-13.67153254 -0.19213531 -6.32158416 -2.795545 0 0 Z " fill="#4D88F9" transform="translate(109.7578125,361.77734375)"/>
<path d="M0 0 C3.155625 0.0825 6.31125 0.165 9.5625 0.25 C9.5625 10.15 9.5625 20.05 9.5625 30.25 C6.406875 30.3325 3.25125 30.415 0 30.5 C-1.4706189 30.55462402 -1.4706189 30.55462402 -2.97094727 30.61035156 C-9.01630571 30.68635526 -12.54624526 29.87385931 -17.4375 26.25 C-20.27645714 22.79913731 -21.32287524 19.06670139 -21.9375 14.6875 C-21.33563605 10.54968533 -20.31232468 7.34097691 -17.4375 4.25 C-11.61298748 -0.00462438 -7.0695072 -0.26258668 0 0 Z " fill="#CCD1F2" transform="translate(246.4375,408.75)"/>
</svg>
